<?xml version="1.0" encoding="UTF-8" standalone="no"?>
<svg
   xmlns:dc="http://purl.org/dc/elements/1.1/"
   xmlns:cc="http://creativecommons.org/ns#"
   xmlns:rdf="http://www.w3.org/1999/02/22-rdf-syntax-ns#"
   xmlns:svg="http://www.w3.org/2000/svg"
   xmlns="http://www.w3.org/2000/svg"
   xmlns:sodipodi="http://sodipodi.sourceforge.net/DTD/sodipodi-0.dtd"
   xmlns:inkscape="http://www.inkscape.org/namespaces/inkscape"
   height="100px"
   version="1.1"
   viewBox="0 0 160 100"
   width="160px"
   id="svg3003"
   inkscape:version="0.48.4 r9939"
   sodipodi:docname="discover_network_card.svg">
  <metadata
     id="metadata3019">
    <rdf:RDF>
      <cc:Work
         rdf:about="">
        <dc:format>image/svg+xml</dc:format>
        <dc:type
           rdf:resource="http://purl.org/dc/dcmitype/StillImage" />
      </cc:Work>
    </rdf:RDF>
  </metadata>
  <sodipodi:namedview
     pagecolor="#ffffff"
     bordercolor="#666666"
     borderopacity="1"
     objecttolerance="10"
     gridtolerance="10"
     guidetolerance="10"
     inkscape:pageopacity="0"
     inkscape:pageshadow="2"
     inkscape:window-width="1858"
     inkscape:window-height="1058"
     id="namedview3017"
     showgrid="false"
     inkscape:zoom="2.0682873"
     inkscape:cx="229.45693"
     inkscape:cy="56.523695"
     inkscape:window-x="54"
     inkscape:window-y="-8"
     inkscape:window-maximized="1"
     inkscape:current-layer="DISCOVER" />
  <title
     id="title3005" />
  <defs
     id="defs3007" />
  <g
     style="fill:none;stroke:none"
     id="DISCOVER">
    <path
       style="fill:#f4f4f4"
       inkscape:connector-curvature="0"
       id="Rectangle-1"
       d="m 159.96642,1.0114669e-6 -160.08607812,0 C -2.4341114e-4,18.827712 0.11965811,100 0.11965811,100 0.11965811,100 140,100 148,100 c 8,0 12,-3.999999 12,-11.999999 C 160.49672,71.336042 159.96642,1.0114669e-6 159.96642,1.0114669e-6 z"
       sodipodi:nodetypes="cccscc" />
    <path
       style="fill:#d97b16"
       inkscape:connector-curvature="0"
       id="Rectangle-1-copy"
       d="m 49.542969,100 c 42.986025,0 110.551051,0 110.551051,0 0,0 0.0556,-41.253877 0.0556,-59.571289 0,0 -23.99039,41.974609 -110.606601,59.571289 z"
       sodipodi:nodetypes="ccccc" />
    <path
       style="fill:#000000"
       inkscape:connector-curvature="0"
       id="NETWORK"
       d="m 52.038426,48.920816 1.437821,0 4.450398,6.641363 0.02282,0 0,-6.641363 1.095482,0 0,8.079184 -1.392175,0 -4.496044,-6.641363 -0.02282,0 0,6.641363 -1.095483,0 0,-8.079184 z m 9.083377,0 5.214954,0 0,1.027015 -4.119471,0 0,2.407779 3.834189,0 0,1.027015 -3.834189,0 0,2.59036 4.324874,0 0,1.027015 -5.420357,0 0,-8.079184 z m 8.661159,1.027015 -2.601771,0 0,-1.027015 6.299025,0 0,1.027015 -2.601771,0 0,7.052169 -1.095483,0 0,-7.052169 z m 3.83419,-1.027015 1.141127,0 1.780159,6.458783 0.02282,0 1.905683,-6.458783 1.255241,0 1.905683,6.458783 0.02282,0 1.780159,-6.458783 1.141128,0 L 82.221255,57 l -1.152539,0 -1.96274,-6.595718 -0.02282,0 L 77.131825,57 75.979286,57 73.617152,48.920816 z m 15.713328,8.284587 c -0.616212,0 -1.182966,-0.108406 -1.70028,-0.325221 -0.517314,-0.216816 -0.960447,-0.515408 -1.329414,-0.895786 -0.368966,-0.380377 -0.658049,-0.829217 -0.867257,-1.34653 -0.209208,-0.517314 -0.31381,-1.076461 -0.31381,-1.677458 0,-0.600997 0.104602,-1.160144 0.31381,-1.677458 0.209208,-0.517314 0.498291,-0.966153 0.867257,-1.346531 0.368967,-0.380377 0.8121,-0.67897 1.329414,-0.895785 0.517314,-0.216815 1.084068,-0.325221 1.70028,-0.325221 0.616212,0 1.182967,0.108406 1.700281,0.325221 0.517313,0.216815 0.960447,0.515408 1.329413,0.895785 0.368967,0.380378 0.65805,0.829217 0.867257,1.346531 0.209208,0.517314 0.313811,1.076461 0.313811,1.677458 0,0.600997 -0.104603,1.160144 -0.313811,1.677458 -0.209207,0.517313 -0.49829,0.966153 -0.867257,1.34653 -0.368966,0.380378 -0.8121,0.67897 -1.329413,0.895786 -0.517314,0.216815 -1.084069,0.325221 -1.700281,0.325221 z m 0,-1.027015 c 0.464061,0 0.882471,-0.08558 1.255241,-0.256754 0.37277,-0.17117 0.692283,-0.401295 0.958547,-0.690382 0.266265,-0.289087 0.471666,-0.62952 0.616209,-1.021309 0.144544,-0.391789 0.216814,-0.808297 0.216814,-1.249535 0,-0.441238 -0.07227,-0.857746 -0.216814,-1.249535 -0.144543,-0.391789 -0.349944,-0.732222 -0.616209,-1.021309 -0.266264,-0.289087 -0.585777,-0.519213 -0.958547,-0.690383 -0.37277,-0.17117 -0.79118,-0.256753 -1.255241,-0.256753 -0.464061,0 -0.88247,0.08558 -1.25524,0.256753 -0.37277,0.17117 -0.692283,0.401296 -0.958548,0.690383 -0.266264,0.289087 -0.471665,0.62952 -0.616208,1.021309 -0.144544,0.391789 -0.216815,0.808297 -0.216815,1.249535 0,0.441238 0.07227,0.857746 0.216815,1.249535 0.144543,0.391789 0.349944,0.732222 0.616208,1.021309 0.266265,0.289087 0.585778,0.519212 0.958548,0.690382 0.37277,0.17117 0.791179,0.256754 1.25524,0.256754 0,0 -0.464061,0 0,0 z m 5.785518,-7.257572 2.841408,0 c 0.517314,0 0.94333,0.07037 1.278063,0.211108 0.334732,0.14074 0.599091,0.319515 0.793081,0.53633 0.19399,0.216816 0.32903,0.460254 0.4051,0.730322 0.0761,0.270068 0.11412,0.530623 0.11412,0.781673 0,0.258656 -0.0456,0.5078 -0.13694,0.747438 -0.0913,0.239638 -0.22252,0.45645 -0.39369,0.650443 -0.171168,0.193993 -0.380373,0.357553 -0.627619,0.490685 -0.247245,0.133132 -0.523015,0.214912 -0.827317,0.245342 L 100.85587,57 l -1.369353,0 -2.05403,-3.560319 -1.221007,0 0,3.560319 -1.095482,0 0,-8.079184 z m 1.095482,3.560318 1.437821,0 c 0.213012,0 0.424118,-0.01712 0.633326,-0.05135 0.209208,-0.03423 0.395591,-0.09699 0.559153,-0.188286 0.163562,-0.09129 0.294791,-0.222519 0.393689,-0.393689 0.0989,-0.17117 0.148347,-0.393687 0.148347,-0.667559 0,-0.273872 -0.04945,-0.49639 -0.148347,-0.66756 -0.0989,-0.17117 -0.230127,-0.302399 -0.393689,-0.393689 -0.163562,-0.09129 -0.349945,-0.154052 -0.559153,-0.188286 -0.209208,-0.03423 -0.420314,-0.05135 -0.633326,-0.05135 l -1.437821,0 0,2.601771 z m 5.87681,-3.560318 1.09548,0 0,3.49185 0.0913,0 3.57173,-3.49185 1.52911,0 -3.90265,3.731487 4.16511,4.347697 -1.59758,0 -3.76572,-4.039592 -0.0913,0 0,4.039592 -1.09548,0 0,-8.079184 z m 0,0" />
    <path
       style="fill:#000000"
       inkscape:connector-curvature="0"
       id="path3014"
       d="m 14.1335,23.884 7.533,0 c 1.260006,0 2.474994,0.193498 3.645,0.5805 1.170006,0.387002 2.204996,0.976496 3.105,1.7685 0.900004,0.792004 1.619997,1.786494 2.16,2.9835 0.540003,1.197006 0.81,2.605492 0.81,4.2255 0,1.638008 -0.310497,3.055494 -0.9315,4.2525 -0.621003,1.197006 -1.421995,2.186996 -2.403,2.97 -0.981005,0.783004 -2.069994,1.367998 -3.267,1.755 C 23.587994,42.806502 22.413506,43 21.2615,43 l -7.128,0 0,-19.116 z m 5.94,16.038 c 1.062005,0 2.065495,-0.121499 3.0105,-0.3645 0.945005,-0.243001 1.768496,-0.620997 2.4705,-1.134 0.702003,-0.513003 1.255498,-1.178996 1.6605,-1.998 0.405002,-0.819004 0.6075,-1.813494 0.6075,-2.9835 0,-1.152006 -0.179998,-2.141996 -0.54,-2.97 -0.360002,-0.828004 -0.859497,-1.498497 -1.4985,-2.0115 -0.639003,-0.513003 -1.394996,-0.890999 -2.268,-1.134 -0.873004,-0.243001 -1.831495,-0.3645 -2.8755,-0.3645 l -3.105,0 0,12.96 2.538,0 z m 14.472,-16.038 3.402,0 0,19.116 -3.402,0 0,-19.116 z m 16.956,4.104 C 51.141498,27.465997 50.660003,27.083501 50.057,26.8405 49.453997,26.597499 48.819503,26.476 48.1535,26.476 c -0.396002,0 -0.778498,0.045 -1.1475,0.135 -0.369002,0.09 -0.701999,0.233999 -0.999,0.432 -0.297002,0.198001 -0.535499,0.454498 -0.7155,0.7695 -0.180001,0.315002 -0.27,0.688498 -0.27,1.1205 0,0.648003 0.224998,1.142998 0.675,1.485 0.450002,0.342002 1.007997,0.638999 1.674,0.891 0.666003,0.252001 1.394996,0.494999 2.187,0.729 0.792004,0.234001 1.520997,0.557998 2.187,0.972 0.666003,0.414002 1.223998,0.962997 1.674,1.647 0.450002,0.684003 0.675,1.592994 0.675,2.727 0,1.026005 -0.188998,1.921496 -0.567,2.6865 -0.378002,0.765004 -0.886497,1.399497 -1.5255,1.9035 -0.639003,0.504003 -1.381496,0.881999 -2.2275,1.134 -0.846004,0.252001 -1.736995,0.378 -2.673,0.378 -1.188006,0 -2.330995,-0.197998 -3.429,-0.594 -1.098005,-0.396002 -2.042996,-1.061995 -2.835,-1.998 l 2.565,-2.484 c 0.414002,0.630003 0.958497,1.120498 1.6335,1.4715 0.675003,0.351002 1.390496,0.5265 2.1465,0.5265 0.396002,0 0.791998,-0.054 1.188,-0.162 0.396002,-0.108001 0.755998,-0.269999 1.08,-0.486 0.324002,-0.216001 0.584999,-0.490498 0.783,-0.8235 0.198001,-0.333002 0.297,-0.715498 0.297,-1.1475 0,-0.702004 -0.224998,-1.241998 -0.675,-1.62 -0.450002,-0.378002 -1.007997,-0.697499 -1.674,-0.9585 -0.666003,-0.261001 -1.394996,-0.508499 -2.187,-0.7425 -0.792004,-0.234001 -1.520997,-0.553498 -2.187,-0.9585 -0.666003,-0.405002 -1.223998,-0.944997 -1.674,-1.62 -0.450002,-0.675003 -0.675,-1.579494 -0.675,-2.7135 0,-0.990005 0.202498,-1.844996 0.6075,-2.565 0.405002,-0.720004 0.935997,-1.318498 1.593,-1.7955 0.657003,-0.477002 1.408496,-0.832499 2.2545,-1.0665 0.846004,-0.234001 1.709996,-0.351 2.592,-0.351 1.008005,0 1.984495,0.152998 2.9295,0.459 0.945005,0.306001 1.795496,0.809996 2.5515,1.512 0,0 -0.756004,-0.702004 0,0 l -2.484,2.619 z m 19.251,0.378 c -0.702004,-0.756004 -1.381497,-1.259999 -2.0385,-1.512 -0.657003,-0.252001 -1.318497,-0.378 -1.9845,-0.378 -0.990005,0 -1.885496,0.175498 -2.6865,0.5265 -0.801004,0.351002 -1.489497,0.836997 -2.0655,1.458 -0.576003,0.621003 -1.021498,1.345496 -1.3365,2.1735 -0.315002,0.828004 -0.4725,1.718995 -0.4725,2.673 0,1.026005 0.157498,1.970996 0.4725,2.835 0.315002,0.864004 0.760497,1.610997 1.3365,2.241 0.576003,0.630003 1.264496,1.124998 2.0655,1.485 0.801004,0.360002 1.696495,0.54 2.6865,0.54 0.774004,0 1.525496,-0.184498 2.2545,-0.5535 0.729004,-0.369002 1.408497,-0.958496 2.0385,-1.7685 l 2.808,1.998 c -0.864004,1.188006 -1.916994,2.051997 -3.159,2.592 -1.242006,0.540003 -2.564993,0.81 -3.969,0.81 -1.476007,0 -2.830494,-0.238498 -4.0635,-0.7155 -1.233006,-0.477002 -2.294996,-1.151996 -3.186,-2.025 -0.891004,-0.873004 -1.588498,-1.921494 -2.0925,-3.1455 -0.504002,-1.224006 -0.756,-2.582993 -0.756,-4.077 0,-1.530008 0.251998,-2.920494 0.756,-4.1715 0.504002,-1.251006 1.201496,-2.317496 2.0925,-3.1995 0.891004,-0.882004 1.952994,-1.561498 3.186,-2.0385 1.233006,-0.477002 2.587493,-0.7155 4.0635,-0.7155 1.296007,0 2.497495,0.229498 3.6045,0.6885 1.107006,0.459002 2.137495,1.237495 3.0915,2.3355 0,0 -0.954005,-1.098005 0,0 l -2.646,1.944 z m 25.65,-4.482 3.915,0 5.211,14.445 5.373,-14.445 3.672,0 -7.722,19.116 -2.943,0 -7.506,-19.116 z m 20.223,0 12.663,0 0,3.078 -9.261,0 0,4.698 8.775,0 0,3.078 -8.775,0 0,5.184 9.747,0 0,3.078 -13.149,0 0,-19.116 z m 16.497,0 6.642,0 c 0.918,0 1.8045,0.0855 2.6595,0.2565 0.855,0.171001 1.6155,0.463498 2.2815,0.8775 0.666,0.414002 1.197,0.971996 1.593,1.674 0.396,0.702003 0.594,1.592995 0.594,2.673 0,1.386007 -0.3825,2.546995 -1.1475,3.483 -0.765,0.936005 -1.85849,1.502999 -3.2805,1.701 l 5.076,8.451 -4.104,0 -4.428,-8.1 -2.484,0 0,8.1 -3.402,0 0,-19.116 z m 6.048,8.1 c 0.486,0 0.972,-0.0225 1.458,-0.0675 0.486,-0.045 0.9315,-0.152999 1.3365,-0.324 0.405,-0.171001 0.7335,-0.431998 0.9855,-0.783 0.252,-0.351002 0.378,-0.841497 0.378,-1.4715 0,-0.558003 -0.117,-1.007998 -0.351,-1.35 -0.234,-0.342002 -0.54,-0.598499 -0.918,-0.7695 -0.378,-0.171001 -0.7965,-0.2835 -1.2555,-0.3375 -0.459,-0.054 -0.9045,-0.081 -1.3365,-0.081 l -2.943,0 0,5.184 2.646,0 z m 0,0" />
    <circle
       style="fill:#d97b16"
       sodipodi:ry="10.05"
       sodipodi:rx="10.05"
       sodipodi:cy="33.450001"
       sodipodi:cx="86.050003"
       r="10.05"
       id="Oval-1"
       d="M86.05,43.5 C91.600462,43.5 96.1,39.000462 96.1,33.45 C96.1,27.899538 91.600462,23.4 86.05,23.4 C80.499538,23.4 76,27.899538 76,33.45 C76,39.000462 80.499538,43.5 86.05,43.5 Z M86.05,43.5"
       cy="33.450001"
       cx="86.050003" />
  </g>
</svg>
