<?xml version="1.0" encoding="iso-8859-1"?>
<!-- Generator: Adobe Illustrator 16.0.0, SVG Export Plug-In . SVG Version: 6.00 Build 0)  -->
<!DOCTYPE svg PUBLIC "-//W3C//DTD SVG 1.1//EN" "http://www.w3.org/Graphics/SVG/1.1/DTD/svg11.dtd">
<svg version="1.1" id="Capa_1" xmlns="http://www.w3.org/2000/svg" xmlns:xlink="http://www.w3.org/1999/xlink" x="0px" y="0px"
	 width="45.385px" height="45.385px" viewBox="0 0 45.385 45.385" style="enable-background:new 0 0 45.385 45.385;"
	 xml:space="preserve">
<g>
	<g>
		<path style="fill:#fff" d="M44.304,39.627c0-1.144-0.927-2.069-2.07-2.069H3.151c-1.144,0-2.07,0.927-2.07,2.069v3.688c0,1.145,0.927,2.07,2.07,2.07
			h39.083c1.144,0,2.07-0.928,2.07-2.07V39.627L44.304,39.627z"/>
		<path style="fill:#fff" d="M22.233,35.135c2.311,0.24,4.379-1.436,4.62-3.745c0.242-2.31-3.811-4.009-3.031-11.465
			c0.436-4.183-5.107,3.031-5.334,10.592C18.418,32.838,19.923,34.896,22.233,35.135z"/>
		<path style="fill:#fff" d="M32.042,18.649v1.544c0,0.367,0.297,0.665,0.665,0.665h8.498c0.367,0,0.665-0.298,0.665-0.665v-1.544
			c0-2.877-0.689-5.604-1.867-8.046c-0.093-0.194-0.275-0.331-0.488-0.367s-0.429,0.033-0.582,0.186l-6.771,6.79
			c-0.146,0.146-0.215,0.351-0.188,0.555C32.011,18.057,32.042,18.351,32.042,18.649z"/>
		<path style="fill:#fff" d="M13.343,18.649c0-0.308,0.002-0.609,0.025-0.907c0.015-0.193-0.055-0.385-0.192-0.521l-6.78-6.798
			c-0.152-0.152-0.37-0.222-0.583-0.186s-0.395,0.174-0.488,0.368c-1.167,2.442-1.81,5.168-1.81,8.044v1.544
			c0,0.367,0.297,0.665,0.665,0.665h8.498c0.367,0,0.665-0.298,0.665-0.665V18.649z"/>
		<path style="fill:#fff" d="M13.343,26.395c0-0.367-0.297-0.665-0.665-0.665H4.18c-0.367,0-0.665,0.298-0.665,0.665v7.541
			c0,0.367,0.297,0.665,0.665,0.665h8.498c0.367,0,0.665-0.298,0.665-0.665V26.395z"/>
		<path style="fill:#fff" d="M32.042,33.936c0,0.367,0.297,0.665,0.665,0.665h8.498c0.367,0,0.665-0.298,0.665-0.665v-7.541
			c0-0.367-0.297-0.665-0.665-0.665h-8.498c-0.367,0-0.665,0.298-0.665,0.665V33.936z"/>
		<path style="fill:#fff" d="M29.293,12.164c0.124,0.127,0.294,0.199,0.472,0.201c0.178,0.001,0.35-0.068,0.476-0.194l5.973-5.951
			c0.125-0.125,0.195-0.294,0.195-0.471c0-0.177-0.07-0.346-0.195-0.471c-2.726-2.716-6.028-4.605-10.272-5.269
			c-0.192-0.03-0.387,0.025-0.535,0.151s-0.233,0.311-0.233,0.505v8.595c0,0.293,0.191,0.551,0.472,0.636
			C27.156,10.354,28.3,11.138,29.293,12.164z"/>
		<path style="fill:#fff" d="M19.748,9.899c0.277-0.087,0.466-0.344,0.466-0.635v-8.6c0-0.194-0.085-0.379-0.233-0.505
			c-0.147-0.126-0.343-0.182-0.535-0.151c-4.25,0.663-7.594,2.553-10.324,5.268C8.997,5.401,8.926,5.57,8.926,5.748
			c0,0.177,0.07,0.346,0.195,0.471l5.966,5.955c0.125,0.125,0.294,0.194,0.471,0.194c0.177-0.001,0.346-0.071,0.47-0.196
			C17.046,11.146,18.276,10.359,19.748,9.899z"/>
	</g>
</g>
<g>
</g>
<g>
</g>
<g>
</g>
<g>
</g>
<g>
</g>
<g>
</g>
<g>
</g>
<g>
</g>
<g>
</g>
<g>
</g>
<g>
</g>
<g>
</g>
<g>
</g>
<g>
</g>
<g>
</g>
</svg>
