<?xml version="1.0" encoding="iso-8859-1"?>
<!-- Generator: Adobe Illustrator 16.0.0, SVG Export Plug-In . SVG Version: 6.00 Build 0)  -->
<!DOCTYPE svg PUBLIC "-//W3C//DTD SVG 1.1//EN" "http://www.w3.org/Graphics/SVG/1.1/DTD/svg11.dtd">
<svg version="1.1" id="Capa_1" xmlns="http://www.w3.org/2000/svg" xmlns:xlink="http://www.w3.org/1999/xlink" x="0px" y="0px"
	 width="234.407px" height="234.406px" viewBox="0 0 234.407 234.406" xml:space="preserve" >
<g>
	<g>
		<rect  style="fill:#fff" y="91.861" width="234.407" height="18.756"/>
		<polygon  style="fill:#fff" points="11.722,182.312 32.823,182.312 32.823,186.561 41.317,186.561 41.317,182.312 193.098,182.312 193.098,186.561
			201.593,186.561 201.593,182.312 222.685,182.312 222.685,113.806 11.722,113.806 		"/>
		<path style="fill:#fff" d="M77.408,83.958h-8.875c1.108-1.006,1.885-2.703,1.885-4.068c0-2.043-1.655-3.699-3.707-3.699
			c-2.04,0-3.695,1.655-3.695,3.699c0,1.365,0.773,3.062,1.881,4.068H53.956V60.391c0-4.334,3.527-7.858,7.856-7.858
			c4.344,0,7.859,3.524,7.859,7.858h4.694c0-6.919-5.626-12.545-12.553-12.545c-6.915,0-12.541,5.626-12.541,12.545v23.568H38.327
			c1.104-1.006,1.875-2.703,1.875-4.068c0-2.043-1.657-3.699-3.697-3.699c-2.042,0-3.699,1.655-3.699,3.699
			c0,1.365,0.779,3.062,1.881,4.068H25.82v4.691h51.572v-4.691H77.408z"/>
		<rect style="fill:#fff" x="68.509" y="61.074" width="7.035" height="4.687"/>
		<path style="fill:#fff" d="M95.235,65.36c0-1.603-0.936-2.954-2.263-3.659v-1.16l3.064-2.036h-3.064h-2.943v2.883
			c-1.797,0.471-3.146,2.023-3.146,3.971v23.29h8.343L95.235,65.36L95.235,65.36z"/>
	</g>
</g>
</svg>
