<?xml version="1.0" encoding="UTF-8" standalone="no"?>
<!-- Created with Inkscape (http://www.inkscape.org/) -->

<svg
   xmlns:dc="http://purl.org/dc/elements/1.1/"
   xmlns:cc="http://creativecommons.org/ns#"
   xmlns:rdf="http://www.w3.org/1999/02/22-rdf-syntax-ns#"
   xmlns:svg="http://www.w3.org/2000/svg"
   xmlns="http://www.w3.org/2000/svg"
   xmlns:sodipodi="http://sodipodi.sourceforge.net/DTD/sodipodi-0.dtd"
   xmlns:inkscape="http://www.inkscape.org/namespaces/inkscape"
   xml:space="preserve"
   height="79.080002"
   width="225"
   version="1.1"
   id="svg2"
   inkscape:version="0.48.4 r9939"
   sodipodi:docname="paypal_credit.svg"><sodipodi:namedview
     pagecolor="#ffffff"
     bordercolor="#666666"
     borderopacity="1"
     objecttolerance="10"
     gridtolerance="10"
     guidetolerance="10"
     inkscape:pageopacity="0"
     inkscape:pageshadow="2"
     inkscape:window-width="1428"
     inkscape:window-height="911"
     id="namedview61"
     showgrid="false"
     inkscape:zoom="1.9066667"
     inkscape:cx="151.17778"
     inkscape:cy="80.349317"
     inkscape:window-x="343"
     inkscape:window-y="50"
     inkscape:window-maximized="0"
     inkscape:current-layer="layer1" /><metadata
     id="metadata4"><rdf:RDF><cc:Work
         rdf:about=""><dc:format>image/svg+xml</dc:format><dc:type
           rdf:resource="http://purl.org/dc/dcmitype/StillImage" /><dc:title></dc:title></cc:Work></rdf:RDF></metadata><defs
     id="defs6"><clipPath
       id="clipPath16"><path
         d="M 0,51 157,51 157,0 0,0 0,51 z"
         id="path9"
         inkscape:connector-curvature="0" /></clipPath></defs><g
     inkscape:groupmode="layer"
     id="layer2"
     inkscape:label="Layer#1"
     style="display:inline" /><g
     inkscape:groupmode="layer"
     id="layer1"
     inkscape:label="Layer"
     style="display:inline"><g
       id="g4098"
       transform="translate(-0.61236101,-0.22881985)"><g
         style="fill:#9fe1ff;fill-opacity:1"
         transform="matrix(1.1490285,0,0,-1.1490285,158.25558,11.591021)"
         id="g21"><path
           d="m 0,0 c -0.424,-2.784 -2.55,-2.784 -4.607,-2.784 h -1.17 l 0.821,5.198 c 0.049,0.314 0.32,0.545 0.638,0.545 h 0.537 c 1.4,0 2.722,0 3.404,-0.797 C 0.031,1.685 0.154,0.977 0,0 m -0.895,7.264 -7.756,0 c -0.531,0 -0.982,-0.386 -1.065,-0.91 l -3.136,-19.888 c -0.062,-0.392 0.242,-0.747 0.638,-0.747 h 3.98 c 0.371,0 0.687,0.27 0.745,0.636 l 0.89,5.639 c 0.082,0.524 0.534,0.91 1.064,0.91 h 2.454 c 5.109,0 8.058,2.472 8.828,7.373 C 6.094,2.419 5.761,4.103 4.758,5.282 3.655,6.578 1.7,7.264 -0.895,7.264"
           id="path23"
           inkscape:connector-curvature="0"
           style="fill:#9fe1ff;fill-opacity:1;fill-rule:nonzero" /></g><g
         style="fill:#ffffff"
         transform="matrix(1.1490285,0,0,-1.1490285,94.691665,11.591021)"
         id="g25"><path
           d="m 0,0 c -0.424,-2.784 -2.55,-2.784 -4.607,-2.784 h -1.17 l 0.821,5.198 c 0.049,0.314 0.32,0.545 0.638,0.545 h 0.537 c 1.4,0 2.722,0 3.404,-0.797 C 0.031,1.685 0.154,0.977 0,0 m -0.895,7.264 -7.756,0 c -0.531,0 -0.982,-0.386 -1.065,-0.91 l -3.136,-19.888 c -0.062,-0.392 0.241,-0.747 0.638,-0.747 h 3.704 c 0.53,0 0.981,0.386 1.064,0.909 l 0.847,5.366 c 0.082,0.524 0.534,0.91 1.064,0.91 h 2.454 c 5.109,0 8.058,2.472 8.828,7.373 C 6.094,2.419 5.761,4.103 4.758,5.282 3.655,6.578 1.7,7.264 -0.895,7.264"
           id="path27"
           inkscape:connector-curvature="0"
           style="fill:#ffffff;fill-rule:nonzero" /></g><g
         style="fill:#ffffff"
         transform="matrix(1.1490285,0,0,-1.1490285,114.35304,19.794855)"
         id="g29"><path
           d="m 0,0 c -0.359,-2.122 -2.043,-3.547 -4.192,-3.547 -1.077,0 -1.94,0.347 -2.494,1.003 -0.549,0.65 -0.756,1.577 -0.582,2.608 0.334,2.104 2.046,3.574 4.162,3.574 1.055,0 1.911,-0.35 2.476,-1.012 C -0.061,1.959 0.163,1.027 0,0 m 5.176,7.229 -3.714,0 C 1.144,7.229 0.873,6.998 0.823,6.683 L 0.66,5.645 0.401,6.021 c -0.805,1.167 -2.598,1.558 -4.388,1.558 -4.103,0 -7.608,-3.11 -8.29,-7.471 -0.355,-2.176 0.149,-4.255 1.383,-5.706 1.133,-1.333 2.75,-1.888 4.677,-1.888 3.308,0 5.142,2.124 5.142,2.124 L -1.241,-6.394 C -1.303,-6.786 -1,-7.141 -0.602,-7.141 h 3.344 c 0.531,0 0.982,0.385 1.065,0.909 L 5.815,6.482 C 5.877,6.874 5.573,7.229 5.176,7.229"
           id="path31"
           inkscape:connector-curvature="0"
           style="fill:#ffffff;fill-rule:nonzero" /></g><g
         style="fill:#9fe1ff;fill-opacity:1"
         transform="matrix(1.1490285,0,0,-1.1490285,177.91707,19.794855)"
         id="g33"><path
           d="m 0,0 c -0.359,-2.122 -2.043,-3.547 -4.192,-3.547 -1.077,0 -1.94,0.347 -2.494,1.003 -0.55,0.65 -0.756,1.577 -0.582,2.608 0.334,2.104 2.046,3.574 4.162,3.574 1.055,0 1.911,-0.35 2.476,-1.012 C -0.061,1.959 0.163,1.027 0,0 m 5.176,7.229 -3.714,0 C 1.144,7.229 0.873,6.998 0.823,6.683 L 0.66,5.645 0.4,6.021 c -0.804,1.167 -2.597,1.558 -4.387,1.558 -4.103,0 -7.608,-3.11 -8.29,-7.471 -0.355,-2.176 0.149,-4.255 1.383,-5.706 1.133,-1.333 2.75,-1.888 4.677,-1.888 3.308,0 5.142,2.124 5.142,2.124 L -1.241,-6.394 C -1.303,-6.786 -1,-7.141 -0.602,-7.141 h 3.344 c 0.531,0 0.982,0.385 1.065,0.909 L 5.815,6.482 C 5.877,6.874 5.573,7.229 5.176,7.229"
           id="path35"
           inkscape:connector-curvature="0"
           style="fill:#9fe1ff;fill-opacity:1;fill-rule:nonzero" /></g><g
         style="fill:#ffffff"
         transform="matrix(1.1490285,0,0,-1.1490285,145.02899,11.488644)"
         id="g37"><path
           d="M 0,0 -3.733,0 C -4.09,0 -4.424,-0.177 -4.624,-0.473 l -5.15,-7.584 -2.182,7.288 C -12.093,-0.313 -12.513,0 -12.989,0 h -3.669 c -0.443,0 -0.755,-0.436 -0.612,-0.855 l 4.11,-12.066 -3.866,-5.455 c -0.303,-0.428 0.003,-1.02 0.528,-1.02 h 3.729 c 0.353,0 0.684,0.173 0.886,0.463 L 0.531,-1.015 C 0.828,-0.586 0.522,0 0,0"
           id="path39"
           inkscape:connector-curvature="0"
           style="fill:#ffffff;fill-rule:nonzero" /></g><g
         style="fill:#9fe1ff;fill-opacity:1"
         transform="matrix(1.1490285,0,0,-1.1490285,188.8942,3.872423)"
         id="g41"><path
           d="m 0,0 -3.183,-20.252 c -0.062,-0.392 0.241,-0.747 0.638,-0.747 h 3.202 c 0.53,0 0.982,0.386 1.064,0.91 L 4.86,-0.201 C 4.922,0.191 4.619,0.546 4.221,0.546 H 0.639 C 0.32,0.546 0.049,0.315 0,0"
           id="path43"
           inkscape:connector-curvature="0"
           style="fill:#9fe1ff;fill-opacity:1;fill-rule:nonzero" /></g><g
         style="fill:#ffffff"
         transform="matrix(2.0767483,0,0,-2.0767483,57.654918,7.890735)"
         id="g17"><path
           d="m 0,0 c -1.674,1.908 -4.7,2.726 -8.571,2.726 h -11.235 c -0.792,0 -1.465,-0.576 -1.589,-1.357 L -26.073,-28.3 c -0.093,-0.585 0.36,-1.115 0.953,-1.115 h 6.936 l 1.742,11.049 -0.054,-0.346 c 0.124,0.781 0.792,1.357 1.583,1.357 h 3.296 c 6.475,0 11.545,2.63 13.026,10.238 0.044,0.225 0.082,0.444 0.115,0.658 C 1.965,-3.647 1.521,-1.733 0,0"
           id="path19"
           inkscape:connector-curvature="0"
           style="fill:#ffffff;fill-rule:nonzero" /></g><g
         style="fill:#9fe1ff;fill-opacity:1;stroke:#f9f9f9;stroke-width:0;stroke-miterlimit:4;stroke-opacity:1;stroke-dasharray:none"
         transform="matrix(2.0767483,0,0,-2.0767483,60.820298,21.304451)"
         id="g53"><path
           d="m 0,0 0,0 c -0.034,-0.215 -0.071,-0.433 -0.115,-0.658 -1.481,-7.607 -6.551,-10.238 -13.026,-10.238 h -3.297 c -0.791,0 -1.459,-0.576 -1.582,-1.357 l -1.688,-10.702 -0.479,-3.036 c -0.081,-0.512 0.315,-0.976 0.833,-0.976 h 5.847 c 0.692,0 1.281,0.504 1.389,1.187 l 0.057,0.298 1.102,6.984 0.071,0.386 c 0.108,0.683 0.697,1.187 1.389,1.187 h 0.875 c 5.664,0 10.099,2.301 11.395,8.956 0.541,2.781 0.261,5.103 -1.17,6.734 C 1.167,-0.741 0.628,-0.333 0,0"
           id="path55"
           inkscape:connector-curvature="0"
           style="fill:#9fe1ff;fill-opacity:1;fill-rule:nonzero;stroke:#f9f9f9;stroke-width:0;stroke-miterlimit:4;stroke-opacity:1;stroke-dasharray:none" /></g><g
         style="fill:#009cde;fill-opacity:0.76023392"
         transform="matrix(2.0767483,0,0,-2.0767483,57.599884,20.020813)"
         id="g57"><path
           d="m 0,0 c -0.226,0.066 -0.459,0.126 -0.699,0.179 -0.24,0.053 -0.488,0.1 -0.742,0.141 -0.89,0.144 -1.862,0.212 -2.906,0.212 h -8.807 c -0.217,0 -0.423,-0.049 -0.607,-0.138 -0.407,-0.195 -0.708,-0.579 -0.782,-1.05 l -1.872,-11.869 -0.054,-0.346 c 0.123,0.781 0.791,1.357 1.582,1.357 h 3.297 c 6.475,0 11.545,2.63 13.026,10.238 0.044,0.225 0.081,0.443 0.115,0.658 C 1.176,-0.42 0.77,-0.249 0.333,-0.104 0.224,-0.068 0.113,-0.033 0,0"
           id="path59"
           inkscape:connector-curvature="0"
           style="fill:#009cde;fill-opacity:0.76023392;fill-rule:nonzero" /></g><g
         id="text3121"
         style="font-size:46.34263611px;font-style:normal;font-variant:normal;font-weight:bold;font-stretch:normal;line-height:125%;letter-spacing:0px;word-spacing:0px;fill:#ffffff;fill-opacity:1;stroke:none;font-family:Aharoni;-inkscape-font-specification:Sans"
         transform="translate(1.4826394,0.22813599)"><g
           style="fill:#ffffff"
           transform="matrix(1,0,-0.17632629,1,9.3669188,0)"
           id="g3940"><path
             inkscape:connector-curvature="0"
             d="m 96.554121,67.751803 c -2.624899,1.040898 -5.053661,1.561347 -7.286294,1.561348 -3.892071,-1e-6 -7.376817,-1.244553 -10.454247,-3.733659 -3.922232,-3.183033 -5.883344,-7.33154 -5.883342,-12.445533 -2e-6,-5.129047 1.96111,-9.285096 5.883342,-12.46816 3.07743,-2.489076 6.584804,-3.733628 10.522132,-3.73366 2.14212,3.2e-5 4.548254,0.520481 7.218409,1.561349 l 0,9.617002 c -0.7543,-0.920194 -1.523659,-1.614126 -2.308081,-2.081798 -1.433143,-0.85985 -2.971862,-1.289786 -4.616161,-1.28981 -2.081814,2.4e-5 -3.892072,0.626071 -5.430777,1.878144 -1.94604,1.583997 -2.919054,3.756306 -2.919043,6.516933 -1.1e-5,2.745573 0.973003,4.910339 2.919043,6.494305 1.538705,1.252104 3.348963,1.878151 5.430777,1.878144 1.644299,7e-6 3.183018,-0.429929 4.616161,-1.289809 0.769337,-0.452556 1.538696,-1.146488 2.308081,-2.081798 z"
             style="fill:#ffffff;-inkscape-font-specification:Aharoni Bold"
             id="path3928" /><path
             inkscape:connector-curvature="0"
             d="m 127.32853,68.475906 -10.00168,0 -7.64835,-11.857198 0,11.857198 -8.03302,0 0,-30.887548 12.49078,0 c 3.65067,3.1e-5 6.35098,1.093728 8.10091,3.281095 1.41802,1.765029 2.12703,3.839282 2.12706,6.222766 -3e-5,2.730493 -0.81464,4.910345 -2.44385,6.539562 -1.04092,1.040913 -2.47404,1.765016 -4.29937,2.172311 z M 116.01441,47.544784 c -2e-5,-1.101219 -0.39978,-2.028976 -1.1993,-2.783273 -0.75429,-0.708994 -1.96867,-1.063503 -3.64315,-1.063528 l -1.49346,0 0,7.71623 1.49346,0 c 1.68957,1.7e-5 2.90395,-0.354491 3.64315,-1.063527 0.79952,-0.769341 1.19928,-1.704641 1.1993,-2.805902 z"
             style="fill:#ffffff;-inkscape-font-specification:Aharoni Bold"
             id="path3930" /><path
             inkscape:connector-curvature="0"
             d="m 148.28228,68.475906 -17.58214,0 0,-30.887548 17.58214,0 0,6.720588 -9.54912,0 0,5.227123 9.02867,0 0,6.720588 -9.02867,0 0,5.498662 9.54912,0 z"
             style="fill:#ffffff;-inkscape-font-specification:Aharoni Bold"
             id="path3932" /><path
             inkscape:connector-curvature="0"
             d="m 180.50489,53.020818 c -3e-5,3.213223 -0.96927,6.188833 -2.90772,8.926841 -1.93852,2.738021 -4.41631,4.63502 -7.43338,5.691002 -1.59908,0.558164 -3.22831,0.837245 -4.8877,0.837245 l -11.8572,0 0,-30.887548 11.8572,0 c 2.8964,3.1e-5 5.58161,0.807104 8.05565,2.421222 2.42874,1.568918 4.2918,3.6658 5.58918,6.290651 1.05595,2.172331 1.58394,4.412525 1.58397,6.720587 z m -8.34982,0 c -2e-5,-2.127037 -0.59589,-3.982551 -1.78763,-5.566547 -1.58399,-2.09686 -3.94487,-3.145301 -7.08264,-3.145325 l -1.83288,0 0,17.446373 1.83288,0 c 3.15286,7e-6 5.51373,-1.048434 7.08264,-3.145325 1.19174,-1.599051 1.78761,-3.462108 1.78763,-5.589176 z"
             style="fill:#ffffff;-inkscape-font-specification:Aharoni Bold"
             id="path3934" /><path
             inkscape:connector-curvature="0"
             d="m 193.67453,68.475906 -8.03302,0 0,-30.887548 8.03302,0 z"
             style="fill:#ffffff;-inkscape-font-specification:Aharoni Bold"
             id="path3936" /><path
             inkscape:connector-curvature="0"
             d="m 218.52034,44.308946 -6.6527,0 0,24.16696 -8.03303,0 0,-24.16696 -6.53956,0 0,-6.720588 21.22529,0 z"
             style="fill:#ffffff;-inkscape-font-specification:Aharoni Bold"
             id="path3938" /></g></g></g></g></svg>
